# xmcd CD database file
#
# Track frame offsets:
#	150
#	13044
#	25888
#	44889
#	63935
#	77238
#	90535
#	105855
#	121120
#	134894
#	148720
#	161166
#	173696
#	190848
#	208044
#	222056
#	236021
#	250440
#	264838
#	279460
#	294243
#
# Disc length: 3941 seconds
#
# Revision: 1
# Processed by: cddbd v1.5.1PL0 Copyright (c) Steve Scherf et al.
# Submitted via: CDex 1.51
#
DISCID=310f6315
DTITLE=Hal Leonard - Great Jazz Standards vol 27
DYEAR=1900
DGENRE=Jazz
TTITLE0=Fly Me To The Moon - Split
TTITLE1=Fly Me To The Moon
TTITLE2=Willow Weep For Me - Split
TTITLE3=Willow Weep For Me
TTITLE4=I Can't Get Started With You - Split
TTITLE5=I Can't Get Started With You
TTITLE6=High High The Moon - Split
TTITLE7=How High The Moon
TTITLE8=Girl Talk - Split
TTITLE9=Girl Talk
TTITLE10=Softly As In A Morning Sunrise - Split
TTITLE11=Softly As In A Morning Sunrise
TTITLE12=Speak Low - Split
TTITLE13=Speak Low
TTITLE14=Tangerine - Split
TTITLE15=Tangerine
TTITLE16=It Could Happen To You - Split
TTITLE17=It Could Happen To You
TTITLE18=Lover - Split
TTITLE19=Lover
TTITLE20=Bb Tuning Notes
EXTD=
EXTT0=
EXTT1=
EXTT2=
EXTT3=
EXTT4=
EXTT5=
EXTT6=
EXTT7=
EXTT8=
EXTT9=
EXTT10=
EXTT11=
EXTT12=
EXTT13=
EXTT14=
EXTT15=
EXTT16=
EXTT17=
EXTT18=
EXTT19=
EXTT20=
PLAYORDER=
